<?xml version="1.0" encoding="UTF-8"?>
<svg id="Layer1" data-name="Layer1" xmlns="http://www.w3.org/2000/svg" viewBox="0 0 758.11 192.85" fill="#ffffff">
  <path d="M121.14,188.86l-46.55-65.83h-41.68v65.83H0V0h84.18c10.79,0,20.55,1.4,29.27,4.18,8.72,2.79,16.1,6.75,22.12,11.87,6.02,5.13,10.66,11.42,13.9,18.89,3.24,7.47,4.86,15.78,4.86,24.96,0,7.92-1.13,14.97-3.37,21.18-2.25,6.21-5.35,11.69-9.31,16.46-3.96,4.77-8.68,8.82-14.16,12.14-5.49,3.33-11.56,5.89-18.21,7.69l50.99,71.5h-39.12ZM110.32,37.94c-6.85-5.33-16.51-7.99-28.96-7.99h-48.44v63.67h48.72c11.91,0,21.38-2.89,28.41-8.67,7.04-5.78,10.56-13.55,10.56-23.31,0-10.48-3.43-18.38-10.29-23.71Z"/>
  <path d="M354.28,107.68c0,14.1-1.95,26.49-5.83,37.16-3.89,10.67-9.36,19.58-16.41,26.72-7.05,7.15-15.6,12.48-25.63,16-10.04,3.53-21.29,5.29-33.77,5.29s-23.42-1.76-33.36-5.29c-9.95-3.53-18.44-8.82-25.5-15.87-7.05-7.05-12.48-15.77-16.27-26.17-3.8-10.4-5.7-22.47-5.7-36.21V3h33.09v104.95c0,17.72,4.27,31.19,12.82,40.41,8.54,9.22,20.36,13.83,35.46,13.83s26.64-4.43,35.19-13.29c8.54-8.86,12.82-22.06,12.82-39.6V3h33.09v104.68Z"/>
  <path d="M682.71,189.86h-33.63v-74.86L573.68,3h39.33l53.16,81.08L719.87,3h38.24l-75.4,111.19v75.67Z"/>
  <g>
    <path d="M464.11,53.11L427.77,3h-39.33l50.39,68.47c5.7-8.98,14.69-15.67,25.28-18.36Z"/>
    <path d="M510.24,71.4L560.67,3h-38.24l-36.69,50.31c10.24,2.8,18.93,9.35,24.51,18.09Z"/>
    <path d="M510.87,115.84c-5.51,9.19-14.42,16.11-24.98,19.04l38.18,54.98h39.33l-52.52-74.02Z"/>
    <path d="M438.48,116.22l-52.75,73.64h38.24l38.53-55.19c-10.1-3-18.62-9.66-24.02-18.45Z"/>
  </g>
  <circle cx="474.56" cy="94.93" r="24.64"/>
</svg>